<mxfile host="app.diagrams.net" agent="Mozilla/5.0 (Windows NT 10.0; Win64; x64; rv:130.0) Gecko/20100101 Firefox/130.0" version="24.7.12">
  <diagram name="Página-1" id="c5D5y2_ftJ9IMcS438-D">
    <mxGraphModel dx="2899" dy="1130" grid="1" gridSize="10" guides="1" tooltips="1" connect="1" arrows="1" fold="1" page="1" pageScale="1" pageWidth="850" pageHeight="1100" math="0" shadow="0">
      <root>
        <mxCell id="0" />
        <mxCell id="1" parent="0" />
        <mxCell id="q9eAMnU8siryJKV_CvOA-5" style="edgeStyle=orthogonalEdgeStyle;rounded=0;orthogonalLoop=1;jettySize=auto;html=1;entryX=0.5;entryY=1;entryDx=0;entryDy=0;curved=1;endArrow=none;endFill=0;" parent="1" source="q9eAMnU8siryJKV_CvOA-1" target="q9eAMnU8siryJKV_CvOA-2" edge="1">
          <mxGeometry relative="1" as="geometry" />
        </mxCell>
        <mxCell id="q9eAMnU8siryJKV_CvOA-6" style="edgeStyle=orthogonalEdgeStyle;rounded=0;orthogonalLoop=1;jettySize=auto;html=1;curved=1;endArrow=none;endFill=0;" parent="1" source="q9eAMnU8siryJKV_CvOA-1" target="q9eAMnU8siryJKV_CvOA-3" edge="1">
          <mxGeometry relative="1" as="geometry" />
        </mxCell>
        <mxCell id="q9eAMnU8siryJKV_CvOA-7" style="edgeStyle=orthogonalEdgeStyle;rounded=0;orthogonalLoop=1;jettySize=auto;html=1;curved=1;endArrow=none;endFill=0;" parent="1" source="q9eAMnU8siryJKV_CvOA-1" target="q9eAMnU8siryJKV_CvOA-4" edge="1">
          <mxGeometry relative="1" as="geometry" />
        </mxCell>
        <mxCell id="q9eAMnU8siryJKV_CvOA-48" style="edgeStyle=orthogonalEdgeStyle;rounded=0;orthogonalLoop=1;jettySize=auto;html=1;entryX=1;entryY=0.5;entryDx=0;entryDy=0;endArrow=none;endFill=0;curved=1;" parent="1" source="q9eAMnU8siryJKV_CvOA-1" target="pVNmESX3pNOOvopLlJe7-14" edge="1">
          <mxGeometry relative="1" as="geometry">
            <mxPoint x="600" y="470" as="targetPoint" />
          </mxGeometry>
        </mxCell>
        <mxCell id="pVNmESX3pNOOvopLlJe7-16" value="1" style="edgeLabel;html=1;align=center;verticalAlign=middle;resizable=0;points=[];" vertex="1" connectable="0" parent="q9eAMnU8siryJKV_CvOA-48">
          <mxGeometry x="0.296" y="-2" relative="1" as="geometry">
            <mxPoint x="22" y="2" as="offset" />
          </mxGeometry>
        </mxCell>
        <mxCell id="maq0s0oDYXzoiV6jThD5-4" style="edgeStyle=orthogonalEdgeStyle;rounded=0;orthogonalLoop=1;jettySize=auto;html=1;endArrow=none;endFill=0;entryX=0.5;entryY=0;entryDx=0;entryDy=0;" parent="1" source="q9eAMnU8siryJKV_CvOA-1" target="pVNmESX3pNOOvopLlJe7-1" edge="1">
          <mxGeometry relative="1" as="geometry">
            <mxPoint x="720" y="540" as="targetPoint" />
          </mxGeometry>
        </mxCell>
        <mxCell id="pVNmESX3pNOOvopLlJe7-6" value="N" style="edgeLabel;html=1;align=center;verticalAlign=middle;resizable=0;points=[];" vertex="1" connectable="0" parent="maq0s0oDYXzoiV6jThD5-4">
          <mxGeometry x="-0.8691" y="-1" relative="1" as="geometry">
            <mxPoint as="offset" />
          </mxGeometry>
        </mxCell>
        <mxCell id="q9eAMnU8siryJKV_CvOA-1" value="Farmacia" style="rounded=0;whiteSpace=wrap;html=1;" parent="1" vertex="1">
          <mxGeometry x="660" y="440" width="120" height="60" as="geometry" />
        </mxCell>
        <mxCell id="q9eAMnU8siryJKV_CvOA-2" value="&lt;div&gt;Nome&lt;/div&gt;" style="ellipse;whiteSpace=wrap;html=1;" parent="1" vertex="1">
          <mxGeometry x="680" y="300" width="80" height="60" as="geometry" />
        </mxCell>
        <mxCell id="q9eAMnU8siryJKV_CvOA-3" value="&lt;u&gt;CNPJ&lt;/u&gt;" style="ellipse;whiteSpace=wrap;html=1;" parent="1" vertex="1">
          <mxGeometry x="780" y="320" width="80" height="60" as="geometry" />
        </mxCell>
        <mxCell id="q9eAMnU8siryJKV_CvOA-4" value="Endereço" style="ellipse;whiteSpace=wrap;html=1;" parent="1" vertex="1">
          <mxGeometry x="580" y="320" width="80" height="60" as="geometry" />
        </mxCell>
        <mxCell id="q9eAMnU8siryJKV_CvOA-11" style="edgeStyle=orthogonalEdgeStyle;rounded=0;orthogonalLoop=1;jettySize=auto;html=1;endArrow=none;endFill=0;curved=1;" parent="1" source="pVNmESX3pNOOvopLlJe7-12" target="q9eAMnU8siryJKV_CvOA-1" edge="1">
          <mxGeometry relative="1" as="geometry" />
        </mxCell>
        <mxCell id="pVNmESX3pNOOvopLlJe7-7" value="1" style="edgeLabel;html=1;align=center;verticalAlign=middle;resizable=0;points=[];" vertex="1" connectable="0" parent="q9eAMnU8siryJKV_CvOA-11">
          <mxGeometry x="0.956" y="-2" relative="1" as="geometry">
            <mxPoint x="8" y="2" as="offset" />
          </mxGeometry>
        </mxCell>
        <mxCell id="q9eAMnU8siryJKV_CvOA-13" style="edgeStyle=orthogonalEdgeStyle;rounded=0;orthogonalLoop=1;jettySize=auto;html=1;curved=1;endArrow=none;endFill=0;" parent="1" source="q9eAMnU8siryJKV_CvOA-10" target="q9eAMnU8siryJKV_CvOA-12" edge="1">
          <mxGeometry relative="1" as="geometry" />
        </mxCell>
        <mxCell id="q9eAMnU8siryJKV_CvOA-16" style="edgeStyle=orthogonalEdgeStyle;rounded=0;orthogonalLoop=1;jettySize=auto;html=1;curved=1;endArrow=none;endFill=0;" parent="1" source="q9eAMnU8siryJKV_CvOA-10" target="q9eAMnU8siryJKV_CvOA-14" edge="1">
          <mxGeometry relative="1" as="geometry" />
        </mxCell>
        <mxCell id="q9eAMnU8siryJKV_CvOA-23" style="edgeStyle=orthogonalEdgeStyle;rounded=0;orthogonalLoop=1;jettySize=auto;html=1;curved=1;endArrow=none;endFill=0;" parent="1" source="q9eAMnU8siryJKV_CvOA-10" target="q9eAMnU8siryJKV_CvOA-19" edge="1">
          <mxGeometry relative="1" as="geometry" />
        </mxCell>
        <mxCell id="q9eAMnU8siryJKV_CvOA-26" style="edgeStyle=orthogonalEdgeStyle;rounded=0;orthogonalLoop=1;jettySize=auto;html=1;curved=1;endArrow=none;endFill=0;shape=link;" parent="1" source="q9eAMnU8siryJKV_CvOA-10" target="q9eAMnU8siryJKV_CvOA-25" edge="1">
          <mxGeometry relative="1" as="geometry" />
        </mxCell>
        <mxCell id="q9eAMnU8siryJKV_CvOA-10" value="Funcionario" style="rounded=0;whiteSpace=wrap;html=1;" parent="1" vertex="1">
          <mxGeometry x="1245" y="440" width="120" height="60" as="geometry" />
        </mxCell>
        <mxCell id="q9eAMnU8siryJKV_CvOA-12" value="&lt;u&gt;número de matrícula&lt;/u&gt;" style="ellipse;whiteSpace=wrap;html=1;" parent="1" vertex="1">
          <mxGeometry x="1310" y="270" width="80" height="60" as="geometry" />
        </mxCell>
        <mxCell id="q9eAMnU8siryJKV_CvOA-14" value="nome" style="ellipse;whiteSpace=wrap;html=1;" parent="1" vertex="1">
          <mxGeometry x="1345" y="330" width="80" height="60" as="geometry" />
        </mxCell>
        <mxCell id="q9eAMnU8siryJKV_CvOA-20" style="edgeStyle=orthogonalEdgeStyle;rounded=0;orthogonalLoop=1;jettySize=auto;html=1;endArrow=none;endFill=0;curved=1;" parent="1" source="q9eAMnU8siryJKV_CvOA-17" target="q9eAMnU8siryJKV_CvOA-10" edge="1">
          <mxGeometry relative="1" as="geometry" />
        </mxCell>
        <mxCell id="q9eAMnU8siryJKV_CvOA-17" value="&lt;div&gt;Cargo&lt;/div&gt;" style="ellipse;whiteSpace=wrap;html=1;" parent="1" vertex="1">
          <mxGeometry x="1217.5" y="270" width="80" height="60" as="geometry" />
        </mxCell>
        <mxCell id="q9eAMnU8siryJKV_CvOA-19" value="Salario" style="ellipse;whiteSpace=wrap;html=1;" parent="1" vertex="1">
          <mxGeometry x="1185" y="330" width="80" height="60" as="geometry" />
        </mxCell>
        <mxCell id="q9eAMnU8siryJKV_CvOA-31" style="edgeStyle=orthogonalEdgeStyle;rounded=0;orthogonalLoop=1;jettySize=auto;html=1;curved=1;endArrow=none;endFill=0;" parent="1" source="q9eAMnU8siryJKV_CvOA-25" target="q9eAMnU8siryJKV_CvOA-30" edge="1">
          <mxGeometry relative="1" as="geometry" />
        </mxCell>
        <mxCell id="q9eAMnU8siryJKV_CvOA-25" value="d" style="ellipse;whiteSpace=wrap;html=1;aspect=fixed;" parent="1" vertex="1">
          <mxGeometry x="1290" y="667.5" width="30" height="30" as="geometry" />
        </mxCell>
        <mxCell id="q9eAMnU8siryJKV_CvOA-29" style="edgeStyle=orthogonalEdgeStyle;rounded=0;orthogonalLoop=1;jettySize=auto;html=1;entryX=1;entryY=0.5;entryDx=0;entryDy=0;curved=1;endArrow=none;endFill=0;" parent="1" source="q9eAMnU8siryJKV_CvOA-27" target="q9eAMnU8siryJKV_CvOA-25" edge="1">
          <mxGeometry relative="1" as="geometry" />
        </mxCell>
        <mxCell id="q9eAMnU8siryJKV_CvOA-45" style="edgeStyle=orthogonalEdgeStyle;rounded=0;orthogonalLoop=1;jettySize=auto;html=1;endArrow=none;endFill=0;curved=1;" parent="1" source="q9eAMnU8siryJKV_CvOA-27" target="q9eAMnU8siryJKV_CvOA-44" edge="1">
          <mxGeometry relative="1" as="geometry" />
        </mxCell>
        <mxCell id="q9eAMnU8siryJKV_CvOA-27" value="farmacêutico" style="rounded=0;whiteSpace=wrap;html=1;" parent="1" vertex="1">
          <mxGeometry x="1395" y="652.5" width="120" height="60" as="geometry" />
        </mxCell>
        <mxCell id="q9eAMnU8siryJKV_CvOA-43" style="edgeStyle=orthogonalEdgeStyle;rounded=0;orthogonalLoop=1;jettySize=auto;html=1;curved=1;endArrow=none;endFill=0;" parent="1" source="q9eAMnU8siryJKV_CvOA-30" target="q9eAMnU8siryJKV_CvOA-42" edge="1">
          <mxGeometry relative="1" as="geometry" />
        </mxCell>
        <mxCell id="q9eAMnU8siryJKV_CvOA-30" value="gerente" style="rounded=0;whiteSpace=wrap;html=1;" parent="1" vertex="1">
          <mxGeometry x="1245" y="757.5" width="120" height="60" as="geometry" />
        </mxCell>
        <mxCell id="q9eAMnU8siryJKV_CvOA-33" style="edgeStyle=orthogonalEdgeStyle;rounded=0;orthogonalLoop=1;jettySize=auto;html=1;curved=1;endArrow=none;endFill=0;entryX=0;entryY=0.5;entryDx=0;entryDy=0;" parent="1" source="q9eAMnU8siryJKV_CvOA-32" target="q9eAMnU8siryJKV_CvOA-25" edge="1">
          <mxGeometry relative="1" as="geometry">
            <mxPoint x="1285" y="682.5" as="targetPoint" />
          </mxGeometry>
        </mxCell>
        <mxCell id="q9eAMnU8siryJKV_CvOA-32" value="atendente " style="rounded=0;whiteSpace=wrap;html=1;" parent="1" vertex="1">
          <mxGeometry x="1090" y="652.5" width="120" height="60" as="geometry" />
        </mxCell>
        <mxCell id="q9eAMnU8siryJKV_CvOA-36" value="" style="shape=requiredInterface;html=1;verticalLabelPosition=bottom;sketch=0;" parent="1" vertex="1">
          <mxGeometry x="1355" y="672.5" width="10" height="20" as="geometry" />
        </mxCell>
        <mxCell id="q9eAMnU8siryJKV_CvOA-37" value="" style="shape=requiredInterface;html=1;verticalLabelPosition=bottom;sketch=0;rotation=90;" parent="1" vertex="1">
          <mxGeometry x="1300" y="712.5" width="10" height="20" as="geometry" />
        </mxCell>
        <mxCell id="q9eAMnU8siryJKV_CvOA-38" value="" style="shape=requiredInterface;html=1;verticalLabelPosition=bottom;sketch=0;rotation=-180;" parent="1" vertex="1">
          <mxGeometry x="1245" y="672.5" width="10" height="20" as="geometry" />
        </mxCell>
        <mxCell id="q9eAMnU8siryJKV_CvOA-41" style="edgeStyle=orthogonalEdgeStyle;rounded=0;orthogonalLoop=1;jettySize=auto;html=1;curved=1;endArrow=none;endFill=0;" parent="1" source="q9eAMnU8siryJKV_CvOA-39" target="q9eAMnU8siryJKV_CvOA-32" edge="1">
          <mxGeometry relative="1" as="geometry" />
        </mxCell>
        <mxCell id="q9eAMnU8siryJKV_CvOA-39" value="percentual de comissão" style="ellipse;whiteSpace=wrap;html=1;" parent="1" vertex="1">
          <mxGeometry x="1105" y="765" width="90" height="65" as="geometry" />
        </mxCell>
        <mxCell id="q9eAMnU8siryJKV_CvOA-42" value="volume de vendas da farmácia" style="ellipse;whiteSpace=wrap;html=1;" parent="1" vertex="1">
          <mxGeometry x="1260" y="860" width="90" height="65" as="geometry" />
        </mxCell>
        <mxCell id="q9eAMnU8siryJKV_CvOA-44" value="número do conselho profissional" style="ellipse;whiteSpace=wrap;html=1;" parent="1" vertex="1">
          <mxGeometry x="1410" y="765" width="90" height="65" as="geometry" />
        </mxCell>
        <mxCell id="q9eAMnU8siryJKV_CvOA-49" style="edgeStyle=orthogonalEdgeStyle;rounded=0;orthogonalLoop=1;jettySize=auto;html=1;entryX=0;entryY=0.5;entryDx=0;entryDy=0;curved=1;endArrow=none;endFill=0;" parent="1" source="q9eAMnU8siryJKV_CvOA-46" target="pVNmESX3pNOOvopLlJe7-14" edge="1">
          <mxGeometry relative="1" as="geometry">
            <mxPoint x="520" y="470" as="targetPoint" />
          </mxGeometry>
        </mxCell>
        <mxCell id="pVNmESX3pNOOvopLlJe7-15" value="N" style="edgeLabel;html=1;align=center;verticalAlign=middle;resizable=0;points=[];" vertex="1" connectable="0" parent="q9eAMnU8siryJKV_CvOA-49">
          <mxGeometry x="-0.6667" y="-2" relative="1" as="geometry">
            <mxPoint y="-2" as="offset" />
          </mxGeometry>
        </mxCell>
        <mxCell id="q9eAMnU8siryJKV_CvOA-46" value="Produto" style="rounded=0;whiteSpace=wrap;html=1;" parent="1" vertex="1">
          <mxGeometry x="330" y="440" width="120" height="60" as="geometry" />
        </mxCell>
        <mxCell id="q9eAMnU8siryJKV_CvOA-51" style="edgeStyle=orthogonalEdgeStyle;rounded=0;orthogonalLoop=1;jettySize=auto;html=1;curved=1;endArrow=none;endFill=0;" parent="1" source="q9eAMnU8siryJKV_CvOA-50" target="q9eAMnU8siryJKV_CvOA-46" edge="1">
          <mxGeometry relative="1" as="geometry" />
        </mxCell>
        <mxCell id="q9eAMnU8siryJKV_CvOA-50" value="preço&lt;br&gt; unitário" style="ellipse;whiteSpace=wrap;html=1;" parent="1" vertex="1">
          <mxGeometry x="405" y="300" width="80" height="60" as="geometry" />
        </mxCell>
        <mxCell id="q9eAMnU8siryJKV_CvOA-57" style="edgeStyle=orthogonalEdgeStyle;rounded=0;orthogonalLoop=1;jettySize=auto;html=1;curved=1;endArrow=none;endFill=0;" parent="1" source="q9eAMnU8siryJKV_CvOA-52" target="q9eAMnU8siryJKV_CvOA-46" edge="1">
          <mxGeometry relative="1" as="geometry" />
        </mxCell>
        <mxCell id="q9eAMnU8siryJKV_CvOA-52" value="quantidade em estoque" style="ellipse;whiteSpace=wrap;html=1;" parent="1" vertex="1">
          <mxGeometry x="470" y="370" width="80" height="60" as="geometry" />
        </mxCell>
        <mxCell id="q9eAMnU8siryJKV_CvOA-55" style="edgeStyle=orthogonalEdgeStyle;rounded=0;orthogonalLoop=1;jettySize=auto;html=1;curved=1;endArrow=none;endFill=0;" parent="1" source="q9eAMnU8siryJKV_CvOA-53" target="q9eAMnU8siryJKV_CvOA-46" edge="1">
          <mxGeometry relative="1" as="geometry" />
        </mxCell>
        <mxCell id="q9eAMnU8siryJKV_CvOA-53" value="descrição" style="ellipse;whiteSpace=wrap;html=1;" parent="1" vertex="1">
          <mxGeometry x="290" y="300" width="80" height="60" as="geometry" />
        </mxCell>
        <mxCell id="q9eAMnU8siryJKV_CvOA-56" style="edgeStyle=orthogonalEdgeStyle;rounded=0;orthogonalLoop=1;jettySize=auto;html=1;curved=1;endArrow=none;endFill=0;" parent="1" source="q9eAMnU8siryJKV_CvOA-54" target="q9eAMnU8siryJKV_CvOA-46" edge="1">
          <mxGeometry relative="1" as="geometry" />
        </mxCell>
        <mxCell id="q9eAMnU8siryJKV_CvOA-54" value="&lt;u&gt;código&lt;/u&gt;" style="ellipse;whiteSpace=wrap;html=1;" parent="1" vertex="1">
          <mxGeometry x="220" y="370" width="80" height="60" as="geometry" />
        </mxCell>
        <mxCell id="pVNmESX3pNOOvopLlJe7-38" style="edgeStyle=orthogonalEdgeStyle;rounded=0;orthogonalLoop=1;jettySize=auto;html=1;entryX=0;entryY=0.5;entryDx=0;entryDy=0;curved=1;endArrow=none;endFill=0;" edge="1" parent="1" source="q9eAMnU8siryJKV_CvOA-58" target="pVNmESX3pNOOvopLlJe7-36">
          <mxGeometry relative="1" as="geometry" />
        </mxCell>
        <mxCell id="q9eAMnU8siryJKV_CvOA-58" value="data de validade" style="ellipse;whiteSpace=wrap;html=1;" parent="1" vertex="1">
          <mxGeometry x="-70" y="400" width="80" height="60" as="geometry" />
        </mxCell>
        <mxCell id="pVNmESX3pNOOvopLlJe7-39" style="edgeStyle=orthogonalEdgeStyle;rounded=0;orthogonalLoop=1;jettySize=auto;html=1;entryX=0;entryY=0.5;entryDx=0;entryDy=0;curved=1;endArrow=none;endFill=0;" edge="1" parent="1" source="q9eAMnU8siryJKV_CvOA-62" target="pVNmESX3pNOOvopLlJe7-36">
          <mxGeometry relative="1" as="geometry" />
        </mxCell>
        <mxCell id="q9eAMnU8siryJKV_CvOA-62" value="data de validade" style="ellipse;whiteSpace=wrap;html=1;" parent="1" vertex="1">
          <mxGeometry x="-70" y="480" width="80" height="60" as="geometry" />
        </mxCell>
        <mxCell id="maq0s0oDYXzoiV6jThD5-1" value="Cliente" style="rounded=0;whiteSpace=wrap;html=1;" parent="1" vertex="1">
          <mxGeometry x="660" y="865" width="120" height="60" as="geometry" />
        </mxCell>
        <mxCell id="maq0s0oDYXzoiV6jThD5-8" style="edgeStyle=orthogonalEdgeStyle;rounded=0;orthogonalLoop=1;jettySize=auto;html=1;endArrow=none;endFill=0;exitX=0.5;exitY=1;exitDx=0;exitDy=0;" parent="1" source="pVNmESX3pNOOvopLlJe7-1" target="maq0s0oDYXzoiV6jThD5-1" edge="1">
          <mxGeometry relative="1" as="geometry">
            <mxPoint x="720" y="827.5" as="sourcePoint" />
          </mxGeometry>
        </mxCell>
        <mxCell id="pVNmESX3pNOOvopLlJe7-5" value="N" style="edgeLabel;html=1;align=center;verticalAlign=middle;resizable=0;points=[];" vertex="1" connectable="0" parent="maq0s0oDYXzoiV6jThD5-8">
          <mxGeometry x="0.8463" y="1" relative="1" as="geometry">
            <mxPoint x="-1" as="offset" />
          </mxGeometry>
        </mxCell>
        <mxCell id="maq0s0oDYXzoiV6jThD5-15" style="edgeStyle=orthogonalEdgeStyle;rounded=0;orthogonalLoop=1;jettySize=auto;html=1;curved=1;endArrow=none;endFill=0;" parent="1" source="maq0s0oDYXzoiV6jThD5-11" target="maq0s0oDYXzoiV6jThD5-1" edge="1">
          <mxGeometry relative="1" as="geometry" />
        </mxCell>
        <mxCell id="maq0s0oDYXzoiV6jThD5-11" value="nome" style="ellipse;whiteSpace=wrap;html=1;" parent="1" vertex="1">
          <mxGeometry x="675" y="1010" width="90" height="65" as="geometry" />
        </mxCell>
        <mxCell id="maq0s0oDYXzoiV6jThD5-16" style="edgeStyle=orthogonalEdgeStyle;rounded=0;orthogonalLoop=1;jettySize=auto;html=1;curved=1;endArrow=none;endFill=0;" parent="1" source="maq0s0oDYXzoiV6jThD5-12" target="maq0s0oDYXzoiV6jThD5-1" edge="1">
          <mxGeometry relative="1" as="geometry" />
        </mxCell>
        <mxCell id="maq0s0oDYXzoiV6jThD5-12" value="&lt;u&gt;CPF&lt;/u&gt;" style="ellipse;whiteSpace=wrap;html=1;" parent="1" vertex="1">
          <mxGeometry x="765" y="980" width="90" height="65" as="geometry" />
        </mxCell>
        <mxCell id="maq0s0oDYXzoiV6jThD5-17" style="edgeStyle=orthogonalEdgeStyle;rounded=0;orthogonalLoop=1;jettySize=auto;html=1;curved=1;endArrow=none;endFill=0;" parent="1" source="maq0s0oDYXzoiV6jThD5-13" target="maq0s0oDYXzoiV6jThD5-1" edge="1">
          <mxGeometry relative="1" as="geometry" />
        </mxCell>
        <mxCell id="maq0s0oDYXzoiV6jThD5-13" value="data de nascimento" style="ellipse;whiteSpace=wrap;html=1;" parent="1" vertex="1">
          <mxGeometry x="585" y="980" width="90" height="65" as="geometry" />
        </mxCell>
        <mxCell id="maq0s0oDYXzoiV6jThD5-19" style="edgeStyle=orthogonalEdgeStyle;rounded=0;orthogonalLoop=1;jettySize=auto;html=1;entryX=1;entryY=0.5;entryDx=0;entryDy=0;curved=1;endArrow=none;endFill=0;" parent="1" source="maq0s0oDYXzoiV6jThD5-14" target="maq0s0oDYXzoiV6jThD5-1" edge="1">
          <mxGeometry relative="1" as="geometry" />
        </mxCell>
        <mxCell id="maq0s0oDYXzoiV6jThD5-14" value="idade" style="ellipse;whiteSpace=wrap;html=1;" parent="1" vertex="1">
          <mxGeometry x="860" y="940" width="90" height="65" as="geometry" />
        </mxCell>
        <mxCell id="maq0s0oDYXzoiV6jThD5-21" style="edgeStyle=orthogonalEdgeStyle;rounded=0;orthogonalLoop=1;jettySize=auto;html=1;entryX=0;entryY=0.5;entryDx=0;entryDy=0;curved=1;endArrow=none;endFill=0;exitX=1;exitY=0.5;exitDx=0;exitDy=0;" parent="1" source="maq0s0oDYXzoiV6jThD5-36" target="maq0s0oDYXzoiV6jThD5-1" edge="1">
          <mxGeometry relative="1" as="geometry">
            <mxPoint x="584.9999914792893" y="977.52" as="sourcePoint" />
          </mxGeometry>
        </mxCell>
        <mxCell id="maq0s0oDYXzoiV6jThD5-23" style="edgeStyle=orthogonalEdgeStyle;rounded=0;orthogonalLoop=1;jettySize=auto;html=1;entryX=1;entryY=0.5;entryDx=0;entryDy=0;curved=1;endArrow=none;endFill=0;" parent="1" source="maq0s0oDYXzoiV6jThD5-22" target="maq0s0oDYXzoiV6jThD5-1" edge="1">
          <mxGeometry relative="1" as="geometry" />
        </mxCell>
        <mxCell id="maq0s0oDYXzoiV6jThD5-22" value="endereço" style="ellipse;whiteSpace=wrap;html=1;" parent="1" vertex="1">
          <mxGeometry x="870" y="862.5" width="90" height="65" as="geometry" />
        </mxCell>
        <mxCell id="pVNmESX3pNOOvopLlJe7-2" style="edgeStyle=orthogonalEdgeStyle;rounded=0;orthogonalLoop=1;jettySize=auto;html=1;entryX=1;entryY=0.5;entryDx=0;entryDy=0;endArrow=none;endFill=0;curved=1;" edge="1" parent="1" source="maq0s0oDYXzoiV6jThD5-24" target="pVNmESX3pNOOvopLlJe7-1">
          <mxGeometry relative="1" as="geometry" />
        </mxCell>
        <mxCell id="maq0s0oDYXzoiV6jThD5-24" value=" data de emissão" style="ellipse;whiteSpace=wrap;html=1;" parent="1" vertex="1">
          <mxGeometry x="840" y="580" width="90" height="65" as="geometry" />
        </mxCell>
        <mxCell id="pVNmESX3pNOOvopLlJe7-3" style="edgeStyle=orthogonalEdgeStyle;rounded=0;orthogonalLoop=1;jettySize=auto;html=1;entryX=1;entryY=0.5;entryDx=0;entryDy=0;endArrow=none;endFill=0;curved=1;exitX=0;exitY=0.5;exitDx=0;exitDy=0;" edge="1" parent="1" source="pVNmESX3pNOOvopLlJe7-23" target="pVNmESX3pNOOvopLlJe7-1">
          <mxGeometry relative="1" as="geometry">
            <mxPoint x="840.0000043473012" y="747.4857142857143" as="sourcePoint" />
          </mxGeometry>
        </mxCell>
        <mxCell id="pVNmESX3pNOOvopLlJe7-4" style="edgeStyle=orthogonalEdgeStyle;rounded=0;orthogonalLoop=1;jettySize=auto;html=1;entryX=1;entryY=0.5;entryDx=0;entryDy=0;endArrow=none;endFill=0;curved=1;" edge="1" parent="1" source="maq0s0oDYXzoiV6jThD5-28" target="pVNmESX3pNOOvopLlJe7-1">
          <mxGeometry relative="1" as="geometry" />
        </mxCell>
        <mxCell id="maq0s0oDYXzoiV6jThD5-28" value="&lt;u&gt;código&lt;/u&gt;" style="ellipse;whiteSpace=wrap;html=1;" parent="1" vertex="1">
          <mxGeometry x="930" y="655" width="80" height="60" as="geometry" />
        </mxCell>
        <mxCell id="maq0s0oDYXzoiV6jThD5-36" value="telefone" style="ellipse;shape=doubleEllipse;margin=3;whiteSpace=wrap;html=1;align=center;" parent="1" vertex="1">
          <mxGeometry x="485" y="952.5" width="100" height="40" as="geometry" />
        </mxCell>
        <mxCell id="pVNmESX3pNOOvopLlJe7-1" value="Nota fiscal" style="shape=associativeEntity;whiteSpace=wrap;html=1;align=center;" vertex="1" parent="1">
          <mxGeometry x="650" y="655" width="140" height="60" as="geometry" />
        </mxCell>
        <mxCell id="pVNmESX3pNOOvopLlJe7-9" value="" style="edgeStyle=orthogonalEdgeStyle;rounded=0;orthogonalLoop=1;jettySize=auto;html=1;endArrow=none;endFill=0;curved=1;entryX=1;entryY=0.5;entryDx=0;entryDy=0;" edge="1" parent="1" source="q9eAMnU8siryJKV_CvOA-10" target="pVNmESX3pNOOvopLlJe7-12">
          <mxGeometry relative="1" as="geometry">
            <mxPoint x="1245" y="470" as="sourcePoint" />
            <mxPoint x="1135" y="470" as="targetPoint" />
          </mxGeometry>
        </mxCell>
        <mxCell id="pVNmESX3pNOOvopLlJe7-13" value="N" style="edgeLabel;html=1;align=center;verticalAlign=middle;resizable=0;points=[];" vertex="1" connectable="0" parent="pVNmESX3pNOOvopLlJe7-9">
          <mxGeometry x="-0.8848" y="-3" relative="1" as="geometry">
            <mxPoint x="-4" y="3" as="offset" />
          </mxGeometry>
        </mxCell>
        <mxCell id="pVNmESX3pNOOvopLlJe7-12" value="Possui" style="shape=rhombus;perimeter=rhombusPerimeter;whiteSpace=wrap;html=1;align=center;" vertex="1" parent="1">
          <mxGeometry x="950" y="440" width="120" height="60" as="geometry" />
        </mxCell>
        <mxCell id="pVNmESX3pNOOvopLlJe7-14" value="Possui" style="shape=rhombus;perimeter=rhombusPerimeter;whiteSpace=wrap;html=1;align=center;" vertex="1" parent="1">
          <mxGeometry x="490" y="440" width="120" height="60" as="geometry" />
        </mxCell>
        <mxCell id="pVNmESX3pNOOvopLlJe7-25" style="edgeStyle=orthogonalEdgeStyle;rounded=0;orthogonalLoop=1;jettySize=auto;html=1;curved=1;endArrow=none;endFill=0;" edge="1" parent="1" source="pVNmESX3pNOOvopLlJe7-17" target="pVNmESX3pNOOvopLlJe7-24">
          <mxGeometry relative="1" as="geometry" />
        </mxCell>
        <mxCell id="pVNmESX3pNOOvopLlJe7-17" value="Item" style="rounded=0;whiteSpace=wrap;html=1;" vertex="1" parent="1">
          <mxGeometry x="330" y="655" width="120" height="60" as="geometry" />
        </mxCell>
        <mxCell id="pVNmESX3pNOOvopLlJe7-19" style="edgeStyle=orthogonalEdgeStyle;rounded=0;orthogonalLoop=1;jettySize=auto;html=1;entryX=0;entryY=0.5;entryDx=0;entryDy=0;endArrow=none;endFill=0;curved=1;" edge="1" parent="1" source="pVNmESX3pNOOvopLlJe7-18" target="pVNmESX3pNOOvopLlJe7-1">
          <mxGeometry relative="1" as="geometry" />
        </mxCell>
        <mxCell id="pVNmESX3pNOOvopLlJe7-22" value="N" style="edgeLabel;html=1;align=center;verticalAlign=middle;resizable=0;points=[];" vertex="1" connectable="0" parent="pVNmESX3pNOOvopLlJe7-19">
          <mxGeometry x="0.2929" y="2" relative="1" as="geometry">
            <mxPoint as="offset" />
          </mxGeometry>
        </mxCell>
        <mxCell id="pVNmESX3pNOOvopLlJe7-20" style="edgeStyle=orthogonalEdgeStyle;rounded=0;orthogonalLoop=1;jettySize=auto;html=1;entryX=1;entryY=0.5;entryDx=0;entryDy=0;curved=1;endArrow=none;endFill=0;" edge="1" parent="1" source="pVNmESX3pNOOvopLlJe7-18" target="pVNmESX3pNOOvopLlJe7-17">
          <mxGeometry relative="1" as="geometry" />
        </mxCell>
        <mxCell id="pVNmESX3pNOOvopLlJe7-21" value="N" style="edgeLabel;html=1;align=center;verticalAlign=middle;resizable=0;points=[];" vertex="1" connectable="0" parent="pVNmESX3pNOOvopLlJe7-20">
          <mxGeometry x="0.3071" relative="1" as="geometry">
            <mxPoint x="-4" as="offset" />
          </mxGeometry>
        </mxCell>
        <mxCell id="pVNmESX3pNOOvopLlJe7-18" value="Pertence" style="shape=rhombus;perimeter=rhombusPerimeter;whiteSpace=wrap;html=1;align=center;" vertex="1" parent="1">
          <mxGeometry x="490" y="655" width="120" height="60" as="geometry" />
        </mxCell>
        <mxCell id="pVNmESX3pNOOvopLlJe7-23" value="Valor Total" style="ellipse;whiteSpace=wrap;html=1;align=center;dashed=1;" vertex="1" parent="1">
          <mxGeometry x="840" y="725" width="100" height="40" as="geometry" />
        </mxCell>
        <mxCell id="pVNmESX3pNOOvopLlJe7-24" value="Quantidade" style="ellipse;whiteSpace=wrap;html=1;" vertex="1" parent="1">
          <mxGeometry x="410" y="780" width="90" height="65" as="geometry" />
        </mxCell>
        <mxCell id="pVNmESX3pNOOvopLlJe7-28" style="edgeStyle=orthogonalEdgeStyle;rounded=0;orthogonalLoop=1;jettySize=auto;html=1;entryX=0.5;entryY=1;entryDx=0;entryDy=0;curved=1;endArrow=none;endFill=0;" edge="1" parent="1" source="pVNmESX3pNOOvopLlJe7-26" target="pVNmESX3pNOOvopLlJe7-17">
          <mxGeometry relative="1" as="geometry" />
        </mxCell>
        <mxCell id="pVNmESX3pNOOvopLlJe7-26" value="&lt;u&gt;Codigo do &lt;br&gt;item&lt;/u&gt;" style="ellipse;whiteSpace=wrap;html=1;" vertex="1" parent="1">
          <mxGeometry x="270" y="780" width="90" height="65" as="geometry" />
        </mxCell>
        <mxCell id="pVNmESX3pNOOvopLlJe7-30" style="edgeStyle=orthogonalEdgeStyle;rounded=0;orthogonalLoop=1;jettySize=auto;html=1;entryX=0.5;entryY=1;entryDx=0;entryDy=0;curved=1;endArrow=none;endFill=0;" edge="1" parent="1" source="pVNmESX3pNOOvopLlJe7-29" target="q9eAMnU8siryJKV_CvOA-46">
          <mxGeometry relative="1" as="geometry" />
        </mxCell>
        <mxCell id="pVNmESX3pNOOvopLlJe7-33" value="1" style="edgeLabel;html=1;align=center;verticalAlign=middle;resizable=0;points=[];" vertex="1" connectable="0" parent="pVNmESX3pNOOvopLlJe7-30">
          <mxGeometry x="0.4452" relative="1" as="geometry">
            <mxPoint as="offset" />
          </mxGeometry>
        </mxCell>
        <mxCell id="pVNmESX3pNOOvopLlJe7-31" style="edgeStyle=orthogonalEdgeStyle;rounded=0;orthogonalLoop=1;jettySize=auto;html=1;curved=1;endArrow=none;endFill=0;" edge="1" parent="1" source="pVNmESX3pNOOvopLlJe7-29" target="pVNmESX3pNOOvopLlJe7-17">
          <mxGeometry relative="1" as="geometry" />
        </mxCell>
        <mxCell id="pVNmESX3pNOOvopLlJe7-32" value="N" style="edgeLabel;html=1;align=center;verticalAlign=middle;resizable=0;points=[];" vertex="1" connectable="0" parent="pVNmESX3pNOOvopLlJe7-31">
          <mxGeometry x="0.5117" y="1" relative="1" as="geometry">
            <mxPoint x="-1" y="4" as="offset" />
          </mxGeometry>
        </mxCell>
        <mxCell id="pVNmESX3pNOOvopLlJe7-29" value="Pertence" style="shape=rhombus;perimeter=rhombusPerimeter;whiteSpace=wrap;html=1;align=center;" vertex="1" parent="1">
          <mxGeometry x="330" y="540" width="120" height="60" as="geometry" />
        </mxCell>
        <mxCell id="pVNmESX3pNOOvopLlJe7-35" style="edgeStyle=orthogonalEdgeStyle;rounded=0;orthogonalLoop=1;jettySize=auto;html=1;entryX=0;entryY=0.5;entryDx=0;entryDy=0;curved=1;endArrow=none;endFill=0;" edge="1" parent="1" source="pVNmESX3pNOOvopLlJe7-34" target="q9eAMnU8siryJKV_CvOA-46">
          <mxGeometry relative="1" as="geometry" />
        </mxCell>
        <mxCell id="pVNmESX3pNOOvopLlJe7-37" style="edgeStyle=orthogonalEdgeStyle;rounded=0;orthogonalLoop=1;jettySize=auto;html=1;entryX=1;entryY=0.5;entryDx=0;entryDy=0;curved=1;endArrow=none;endFill=0;" edge="1" parent="1" source="pVNmESX3pNOOvopLlJe7-34" target="pVNmESX3pNOOvopLlJe7-36">
          <mxGeometry relative="1" as="geometry" />
        </mxCell>
        <mxCell id="pVNmESX3pNOOvopLlJe7-34" value="d" style="ellipse;whiteSpace=wrap;html=1;aspect=fixed;" vertex="1" parent="1">
          <mxGeometry x="250" y="460" width="20" height="20" as="geometry" />
        </mxCell>
        <mxCell id="pVNmESX3pNOOvopLlJe7-36" value="Produto" style="rounded=0;whiteSpace=wrap;html=1;" vertex="1" parent="1">
          <mxGeometry x="60" y="440" width="120" height="60" as="geometry" />
        </mxCell>
      </root>
    </mxGraphModel>
  </diagram>
</mxfile>
